<svg width="176" height="36" viewBox="0 0 176 36" fill="none" xmlns="http://www.w3.org/2000/svg">
<g id="Logo Gomining">
<g id="Logo Gomining_2">
<g id="Type">
<path id="o" fill-rule="evenodd" clip-rule="evenodd" d="M77.2418 11.3758C75.4873 9.62236 73.3014 8.76001 70.684 8.76001C68.0953 8.76001 65.9094 9.62236 64.1261 11.3758C62.3716 13.1005 61.48 15.2564 61.48 17.8147C61.48 20.373 62.3429 22.5289 64.1261 24.2536C65.8806 25.9783 68.0953 26.8406 70.684 26.8406C73.2726 26.8406 75.4585 25.9783 77.2418 24.2536C78.9963 22.5289 79.888 20.373 79.888 17.8147C79.888 15.2564 79.0251 13.1005 77.2418 11.3758ZM74.6244 21.8965C73.589 22.9888 72.2947 23.535 70.684 23.535C69.1308 23.535 67.8077 22.9601 66.7435 21.8965C65.6793 20.8042 65.1616 19.4532 65.1616 17.8147C65.1616 16.1762 65.7081 14.7965 66.7435 13.7329C67.8077 12.6406 69.102 12.0657 70.684 12.0657C72.2659 12.0657 73.5602 12.6406 74.6244 13.7042C75.6886 14.7677 76.2064 16.1475 76.2064 17.8147C76.2064 19.4532 75.6886 20.8042 74.6244 21.8965Z" fill="white"/>
<path id="m" fill-rule="evenodd" clip-rule="evenodd" d="M100.971 8.76001C103.014 8.76001 104.653 9.44989 105.947 10.8297C107.242 12.2094 107.874 13.9916 107.874 16.1187V26.5245H104.308V16.6649C104.308 15.3139 103.934 14.2216 103.157 13.3592C102.41 12.4681 101.46 12.0369 100.31 12.0369C99.1594 12.0369 98.1815 12.4681 97.4337 13.3592C96.6859 14.2216 96.3119 15.3139 96.3119 16.6649V26.5245H92.7454V16.6649C92.7454 15.3139 92.3715 14.2216 91.6237 13.3592C90.8758 12.4681 89.9267 12.0369 88.7762 12.0369C87.6257 12.0369 86.6477 12.4681 85.8999 13.3592C85.1521 14.2216 84.7782 15.3139 84.7782 16.6649V26.5245H81.2116V9.10495H84.7782V11.4333C86.0437 9.65111 87.712 8.76001 89.8116 8.76001C91.0196 8.76001 92.0839 9.04746 93.033 9.62236C93.9822 10.1973 94.73 11.0021 95.3053 12.0082C95.938 11.0021 96.7146 10.226 97.6638 9.65111C98.6705 9.04746 99.7634 8.76001 100.971 8.76001Z" fill="white"/>
<g id="i">
<path id="Vector_00000151528623545569589590000005948279620871325073_" fill-rule="evenodd" clip-rule="evenodd" d="M111.495 7.17906C112.128 7.17906 112.617 6.97785 113.048 6.54667C113.48 6.11549 113.681 5.59809 113.681 4.99444C113.681 4.36205 113.451 3.87338 113.048 3.44221C112.617 3.01103 112.099 2.80981 111.495 2.80981C110.862 2.80981 110.373 3.01103 109.913 3.44221C109.482 3.84464 109.28 4.39079 109.28 4.99444C109.28 5.62683 109.482 6.11549 109.913 6.54667C110.373 6.97785 110.92 7.17906 111.495 7.17906Z" fill="white"/>
<path id="Vector_00000088836989503611813990000012819045493178926225_" d="M113.282 9.07715H109.715V26.4679H113.282V9.07715Z" fill="white"/>
</g>
<path id="n" fill-rule="evenodd" clip-rule="evenodd" d="M124.502 8.76001C126.601 8.76001 128.327 9.44989 129.679 10.8297C131.031 12.2094 131.721 13.9916 131.721 16.1187V26.5245H128.155V16.6649C128.155 15.3139 127.723 14.2216 126.831 13.3592C125.94 12.4681 124.847 12.0369 123.495 12.0369C122.143 12.0369 121.05 12.4681 120.13 13.3592C119.238 14.2216 118.807 15.3139 118.807 16.6649V26.5245H115.24V9.10495H118.807V11.577C120.187 9.7086 122.086 8.76001 124.502 8.76001Z" fill="white"/>
<g id="i_00000059282185178711622650000008832276582825793975_">
<path id="Vector_00000034063704318855468760000015731926929591136142_" fill-rule="evenodd" clip-rule="evenodd" d="M135.309 7.17906C135.942 7.17906 136.431 6.97785 136.862 6.54667C137.294 6.11549 137.495 5.59809 137.495 4.99444C137.495 4.36205 137.265 3.87338 136.862 3.44221C136.431 3.01103 135.913 2.80981 135.309 2.80981C134.676 2.80981 134.187 3.01103 133.727 3.44221C133.296 3.84464 133.094 4.39079 133.094 4.99444C133.094 5.62683 133.296 6.11549 133.727 6.54667C134.187 6.97785 134.705 7.17906 135.309 7.17906Z" fill="white"/>
<path id="Vector" d="M137.065 9.07568H133.499V26.4664H137.065V9.07568Z" fill="white"/>
</g>
<path id="n_00000054953523103415591400000001789670725217854862_" fill-rule="evenodd" clip-rule="evenodd" d="M148.344 8.73218C150.444 8.73218 152.17 9.42206 153.522 10.8018C154.874 12.1816 155.564 13.9638 155.564 16.0909V26.4966H151.997V16.6371C151.997 15.286 151.566 14.1937 150.674 13.3314C149.783 12.4403 148.69 12.0091 147.338 12.0091C145.986 12.0091 144.893 12.4403 143.973 13.3314C143.081 14.1937 142.65 15.286 142.65 16.6371V26.4966H139.083V9.07712H142.65V11.5492C144.001 9.68077 145.928 8.73218 148.344 8.73218Z" fill="white"/>
<path id="g" fill-rule="evenodd" clip-rule="evenodd" d="M171.554 9.07712V11.6354C170.059 9.70951 167.959 8.73218 165.399 8.73218C162.983 8.73218 160.941 9.59453 159.273 11.2905C157.633 12.9864 156.828 15.0848 156.828 17.5857C156.828 20.1152 157.633 22.2136 159.273 23.9096C160.912 25.5768 162.954 26.4391 165.399 26.4391C167.988 26.4391 170.03 25.4905 171.554 23.5934V24.6282C171.554 26.2667 171.008 27.6177 169.915 28.71C168.851 29.8023 167.499 30.3772 165.888 30.3772C164.795 30.3772 163.788 30.0897 162.926 29.4861C162.091 28.9112 161.43 28.1351 160.97 27.129L157.748 28.71C158.467 30.2047 159.56 31.412 160.97 32.3031C162.437 33.1942 164.076 33.6254 165.888 33.6254C168.506 33.6254 170.691 32.763 172.446 31.0383C174.229 29.3136 175.092 27.1577 175.092 24.5994V9.04837H171.554V9.07712ZM169.972 21.5812C168.908 22.6448 167.643 23.1622 166.032 23.1622C164.479 23.1622 163.156 22.616 162.091 21.5812C161.027 20.5176 160.51 19.1954 160.51 17.5857C160.51 15.9759 161.056 14.6824 162.091 13.6188C163.156 12.5553 164.45 12.0379 166.032 12.0379C167.614 12.0379 168.937 12.584 169.972 13.6188C171.037 14.6824 171.554 15.9759 171.554 17.5857C171.554 19.1954 171.037 20.5464 169.972 21.5812Z" fill="white"/>
<path id="g_2" fill-rule="evenodd" clip-rule="evenodd" d="M56.7264 9.07712V11.6354C55.2307 9.70951 53.1311 8.73218 50.5712 8.73218C48.1552 8.73218 46.113 9.59453 44.4448 11.2905C42.8053 12.9864 42 15.0848 42 17.5857C42 20.1152 42.8053 22.2136 44.4448 23.9096C46.0843 25.5768 48.1264 26.4391 50.5712 26.4391C53.1598 26.4391 55.202 25.4905 56.7264 23.5934V24.6282C56.7264 26.2667 56.1799 27.6177 55.0869 28.71C54.0227 29.8023 52.6709 30.3772 51.0602 30.3772C49.9672 30.3772 48.9605 30.0897 48.0976 29.4861C47.2635 28.9112 46.602 28.1351 46.1418 27.129L42.9204 28.71C43.6394 30.2047 44.7324 31.412 46.1418 32.3031C47.6087 33.1942 49.2481 33.6254 51.0602 33.6254C53.6776 33.6254 55.8635 32.763 57.618 31.0383C59.4013 29.3136 60.2642 27.1577 60.2642 24.5994V9.04837H56.7264V9.07712ZM55.1444 21.5812C54.0802 22.6448 52.8147 23.1622 51.204 23.1622C49.6508 23.1622 48.3277 22.616 47.2635 21.5812C46.1993 20.5176 45.6816 19.1954 45.6816 17.5857C45.6816 15.9759 46.2281 14.6824 47.2635 13.6188C48.3277 12.5553 49.6221 12.0379 51.204 12.0379C52.7859 12.0379 54.109 12.584 55.1444 13.6188C56.2086 14.6824 56.7264 15.9759 56.7264 17.5857C56.7264 19.1954 56.2086 20.5464 55.1444 21.5812Z" fill="white"/>
</g>
<g id="Sign Gomining">
<ellipse id="Ellipse 4" cx="18" cy="18" rx="18" ry="18" fill="#7540EF"/>
<g id="Symbol">
<ellipse id="Ellipse 4_2" cx="18" cy="18" rx="18" ry="18" fill="#6928FF"/>
<g id="Symbol_2">
<path id="Vector_2" d="M18.2824 5.3999C16.4279 5.3999 14.5505 5.78926 12.7418 6.63668C9.62809 8.0796 7.2699 10.6448 6.12514 13.8512C5.00328 17.0119 5.18644 20.4016 6.65173 23.4248C9.69678 29.7004 17.3895 32.3572 23.8002 29.3797C25.4257 28.6239 26.8681 27.5475 28.0586 26.2191C29.2263 24.8907 30.0734 23.3561 30.6 21.6842L27.8984 18.0197L30.5313 14.4238H26.8223L24.1894 17.9738L26.9139 21.6155L26.891 21.6613C24.8304 26.2878 19.2669 28.4178 14.5276 26.3794C12.2152 25.3716 10.4294 23.5394 9.53651 21.2261C8.6665 18.9587 8.71229 16.508 9.69678 14.2864C11.7573 9.65993 17.2979 7.52991 22.0601 9.56831C23.5483 10.2096 24.8304 11.1945 25.792 12.4541H29.8674C27.6465 8.01089 23.0675 5.3999 18.2824 5.3999Z" fill="white"/>
<path id="Vector_3" d="M24.5346 14.3992H20.8485L18.1698 17.9721L20.8485 21.5221H24.5346L21.9474 17.9721L24.5346 14.3992Z" fill="white"/>
</g>
</g>
</g>
</g>
</g>
</svg>
